<svg id="Layer_1" data-name="Layer 1" xmlns="http://www.w3.org/2000/svg" width="500" height="500" viewBox="0 0 500 500">
  <defs>
    <style>
      .cls-1 {
        fill: #79a3ba;
      }

      .cls-2 {
        fill: #1d963c;
      }
    </style>
  </defs>
  <title>guy1</title>
  <g>
    <path class="cls-1" d="M241.85,28.48c43.76-1.81,36.08,38.61,65.78,57.36,31.87,20.13,72.66-6.22,103.87,24.64,34,33.64,12.31,63.34-10.26,93-33.38,43.94-11.31,48.94,23.63,82.13,37.89,36,38.5,59.19,6.68,101.61-24,32-57.33,43.48-96.25,23.16-38.57-20.13-45.12-38-90.38-10.81-32.8,19.7-59.5,50.52-98.37,22.08-80.07-58.58,45.79-119.8-27.93-166.05-30.68-19.25-62.24-9.48-86.31-48.44C11.64,173.75,13.74,119.52,43.3,91,132.28,5,164.54,196,217.49,182,277.7,166.11,120.53,33.5,241.85,28.48Z"/>
    <path class="cls-2" d="M241.8,27.38a55.58,55.58,0,0,1,13.45,1,34.12,34.12,0,0,1,12.55,5.23l1.41,1,1.33,1.08c.91.7,1.69,1.53,2.53,2.31a47.27,47.27,0,0,1,4.39,5.19,114.26,114.26,0,0,1,7.11,11.37c2.19,3.85,4.3,7.7,6.65,11.35A65.17,65.17,0,0,0,299.1,76,45.53,45.53,0,0,0,309,83.88a47,47,0,0,0,11.57,4.79c8.12,2.2,16.72,2.29,25.38,1.95s17.56-1.25,26.78-1a84.49,84.49,0,0,1,14,1.4,58.8,58.8,0,0,1,26.41,12.2l2.8,2.4c.89.81,1.72,1.64,2.59,2.46s1.69,1.68,2.51,2.57,1.65,1.74,2.42,2.7a62.67,62.67,0,0,1,8.38,12.31,49.13,49.13,0,0,1,4.88,14.79,50.55,50.55,0,0,1,0,15.71,67,67,0,0,1-4.06,14.59c-3.67,9.17-8.67,17.2-13.77,24.79-2.59,3.77-5.23,7.43-7.87,11l-2,2.68-1.84,2.57c-1.25,1.7-2.36,3.42-3.55,5.12a86.68,86.68,0,0,0-5.91,10.23,32.06,32.06,0,0,0-3,9.36,14.67,14.67,0,0,0,.12,3.74,13.73,13.73,0,0,0,1.24,3.58,37.15,37.15,0,0,0,6.17,8.12c2.72,2.83,5.84,5.67,9.06,8.55l9.88,8.85c3.32,3,6.65,6.1,9.9,9.28s6.48,6.51,9.58,10c6.19,7,12.07,14.64,16.4,23.82a56.26,56.26,0,0,1,4.64,14.75,50.19,50.19,0,0,1,.08,15.64,62.55,62.55,0,0,1-4.08,14.44A97,97,0,0,1,451.27,370c-2.38,4-5,7.85-7.64,11.54-1.32,1.87-2.71,3.65-4.08,5.47s-2.74,3.54-4.25,5.34a103.26,103.26,0,0,1-20.37,19.14,73.33,73.33,0,0,1-25.71,11.58,69.18,69.18,0,0,1-28,.45,92.4,92.4,0,0,1-25.95-9.12c-8-4.13-15.6-8.87-23.11-13.49s-14.88-9.25-22.75-11a32.39,32.39,0,0,0-11.95-.36A53.26,53.26,0,0,0,265.52,393a139.38,139.38,0,0,0-22.65,12.29c-7.29,4.71-14.32,10-21.68,15.06s-15,10-23.77,13.64a58.22,58.22,0,0,1-13.86,3.86,48.75,48.75,0,0,1-14.75-.15,55.69,55.69,0,0,1-14-4.32,82.58,82.58,0,0,1-12.36-7.19,105.43,105.43,0,0,1-11-8.8,71.69,71.69,0,0,1-9.7-10.8,56,56,0,0,1-7.19-13.21,54.42,54.42,0,0,1-3.27-14.94,65.18,65.18,0,0,1,.69-15,96.66,96.66,0,0,1,3.31-14c2.81-9,6.38-17.32,9.62-25.4s6.21-15.94,7.62-23.39a38,38,0,0,0,.62-10.56,24.59,24.59,0,0,0-2.61-9.16c-2.85-5.7-8.29-10.77-14.75-15.07A80.35,80.35,0,0,0,94.42,256c-7.83-2.49-16.41-4.33-25.53-7.25a101.45,101.45,0,0,1-13.75-5.48A73.68,73.68,0,0,1,42,235.06a77.17,77.17,0,0,1-11.1-10.69A97.26,97.26,0,0,1,10.7,184.79a118.64,118.64,0,0,1-.27-58.15A97.9,97.9,0,0,1,21.91,99a81.85,81.85,0,0,1,9.15-12.31c.83-1,1.76-1.89,2.66-2.82l1.36-1.38,1.32-1.23c1.76-1.63,3.52-3.26,5.42-4.8,7.42-6.23,15.86-12,26-15.73A55.9,55.9,0,0,1,84,57.27a51.37,51.37,0,0,1,16.81,1.83,60.32,60.32,0,0,1,14.87,6.51,82.64,82.64,0,0,1,12.24,9.09A118.89,118.89,0,0,1,138.08,85q4.71,5.34,8.88,10.88c5.57,7.37,10.56,14.93,15.41,22.42l14.12,22.3a218.44,218.44,0,0,0,14.68,20.65,67.39,67.39,0,0,0,8.2,8.42c.71.6,1.43,1.2,2.16,1.7.36.26.72.55,1.09.78l1.1.69a9,9,0,0,0,1.1.63l1.1.58,1.1.46.55.24.55.16a15.43,15.43,0,0,0,4.4.79,14.89,14.89,0,0,0,2.24-.15c.38-.07.75-.08,1.16-.17l1.25-.32.63-.15c.2-.06.38-.14.57-.2l1.14-.4c.36-.15.67-.33,1-.48l.51-.23.43-.28a8,8,0,0,0,2.8-2.61c1.45-2,2-5.41,1.72-9.18a54.2,54.2,0,0,0-2.39-11.82,226.52,226.52,0,0,0-9.37-24.18c-3.56-8-7.24-16.11-10.71-24.31-1.73-4.1-3.39-8.25-4.9-12.47a129.46,129.46,0,0,1-4-12.9,66.09,66.09,0,0,1-2-13.5,34.23,34.23,0,0,1,0-3.46c0-.58,0-1.15.11-1.73l.22-1.73a13.3,13.3,0,0,1,.3-1.72l.37-1.71.52-1.68a12,12,0,0,1,.6-1.65,26.06,26.06,0,0,1,8.43-11,40.52,40.52,0,0,1,12.16-6.16c1.08-.32,2.14-.72,3.23-1l3.27-.82c2.2-.42,4.39-.9,6.61-1.16A131.48,131.48,0,0,1,241.8,27.38Zm.09,2.2a129.23,129.23,0,0,0-13,1.27c-2.17.28-4.28.77-6.42,1.2l-3.14.83c-1.06.25-2.06.66-3.08,1a37.9,37.9,0,0,0-11.2,6l-.62.48-.57.54L202.68,42c-.37.36-.68.79-1,1.17a12.66,12.66,0,0,0-1,1.21A19.52,19.52,0,0,0,199.07,47c-.23.46-.49.91-.69,1.38l-.56,1.44a9.8,9.8,0,0,0-.47,1.47l-.41,1.5-.27,1.54a11.1,11.1,0,0,0-.21,1.55l-.14,1.56c0,.52,0,1,0,1.57a30.73,30.73,0,0,0,.1,3.16,57.44,57.44,0,0,0,2.48,12.55,152.57,152.57,0,0,0,10,24c3.9,7.84,8.19,15.52,12.37,23.35a234.43,234.43,0,0,1,11.82,24.32,65.49,65.49,0,0,1,4,13.82,32.56,32.56,0,0,1,.36,8,21.91,21.91,0,0,1-2.44,8.59,20.56,20.56,0,0,1-6.06,7.06c-.3.23-.6.47-.91.69l-.93.58c-.62.37-1.26.78-1.89,1.11a35,35,0,0,1-3.81,1.66l-1.91.67c-.65.21-1.38.36-2.07.54a28.87,28.87,0,0,1-4.31.69,29.24,29.24,0,0,1-8.7-.7l-1.06-.23-1-.31-2-.65-1.91-.79a19,19,0,0,1-1.86-.85l-1.79-.92c-.6-.31-1.13-.67-1.7-1-1.15-.66-2.19-1.39-3.24-2.13a80.6,80.6,0,0,1-11.07-9.68,212.77,212.77,0,0,1-17.57-21.3c-5.36-7.23-10.39-14.51-15.5-21.59s-10.17-14-15.48-20.58A134.64,134.64,0,0,0,113.38,91.4c-5.91-5-12.24-8.81-18.51-10.39a30.47,30.47,0,0,0-19,1.46C69.42,84.92,63,89.21,57,94.4c-1.52,1.25-3,2.65-4.44,4l-1.1,1-1,1c-.63.66-1.29,1.29-1.88,2a58.3,58.3,0,0,0-6.6,8.92,73.85,73.85,0,0,0-5.11,10.12,85.26,85.26,0,0,0-3.62,11,98,98,0,0,0-.26,46.7,79.9,79.9,0,0,0,8.46,21.42A77.87,77.87,0,0,0,48,210a55,55,0,0,0,7.77,7.83c5.6,4.64,12.23,7.92,19.9,10.59s16.3,4.76,25.23,7.81a118.51,118.51,0,0,1,13.43,5.44,91.64,91.64,0,0,1,12.79,7.51A76.91,76.91,0,0,1,138.77,259a50.39,50.39,0,0,1,9.32,13.37l.87,1.93c.28.65.5,1.32.75,2,.52,1.32.87,2.7,1.26,4.06a45.25,45.25,0,0,1,1.28,8.29,56.51,56.51,0,0,1-1.4,15.75c-2.23,9.86-6,18.4-9.72,26.55s-7.42,15.91-10.22,23.68-4.73,15.48-4.59,23a40.16,40.16,0,0,0,6.63,21.24c4.17,6.59,10.13,12.39,16.66,17.6a71.11,71.11,0,0,0,10.14,6.68,44.75,44.75,0,0,0,11,4.08,38,38,0,0,0,11.61.74,48.64,48.64,0,0,0,11.72-2.7c7.76-2.76,15.21-7.13,22.55-11.79s14.63-9.76,22.26-14.49A157.41,157.41,0,0,1,263,386.55a60.61,60.61,0,0,1,13.51-3.67,40.84,40.84,0,0,1,7.18-.41,40.36,40.36,0,0,1,7.18.93A55.81,55.81,0,0,1,304,388.46c4.06,2.1,7.9,4.42,11.68,6.71,7.52,4.62,15.05,9.05,22.8,12.87a81.61,81.61,0,0,0,24,7.71A59.29,59.29,0,0,0,387,414.32a61.74,61.74,0,0,0,21.69-11.25,89.11,89.11,0,0,0,17-18.15c1.23-1.66,2.44-3.52,3.66-5.27s2.38-3.58,3.49-5.39c2.28-3.61,4.4-7.27,6.28-11,3.77-7.38,6.61-15,7.19-22.35a35.92,35.92,0,0,0-.71-10.71A39.7,39.7,0,0,0,441.71,320a66.07,66.07,0,0,0-6.43-9.74c-2.49-3.15-5.23-6.21-8.09-9.21s-5.95-5.9-9.06-8.78-6.37-5.74-9.66-8.56-6.66-5.63-10.05-8.59-6.85-6-10.3-9.49a52.74,52.74,0,0,1-9.71-12.94,33.57,33.57,0,0,1-3-8.9,34.36,34.36,0,0,1-.33-9.45,48.48,48.48,0,0,1,5-15.76A105.83,105.83,0,0,1,387.47,206c1.35-1.91,2.69-3.86,4.11-5.67l2.1-2.75,2-2.59c2.69-3.45,5.32-6.87,7.82-10.3a123,123,0,0,0,12.93-20.83c3.3-7.08,5-14.27,4.41-21.32s-3.69-14.07-8.42-20.47c-.55-.82-1.2-1.59-1.82-2.38s-1.24-1.59-1.93-2.34-1.34-1.55-2-2.28l-2.07-2.1a47.48,47.48,0,0,0-9.34-7c-6.79-3.89-14.76-5.89-23.16-6.76s-17.2-.78-26.16-1.12-18.2-1.1-27-4.07A51.77,51.77,0,0,1,296.1,78.76c-6-6.95-10.11-15-14.14-22.83a94,94,0,0,0-6.62-11.25,44.72,44.72,0,0,0-4-5c-.77-.74-1.48-1.54-2.32-2.2l-1.22-1-1.29-.93a31,31,0,0,0-11.69-5A53.38,53.38,0,0,0,241.9,29.58Z"/>
  </g>
</svg>
